# xmcd
#
# Track frame offsets:
# 183
# 9828
# 21033
# 33608
# 40733
# 49765
# 59415
# 70538
# 78318
# 88973
# 97290
# 108008
# 118208
# 127088
# 138890
# 147108
# 158023
# 169633
# 180360
# 189903
# 199720
# 207708
#
# Disc length: 2947 seconds
#
#
# Revision: 2
# Processed by: cddbd v1.5.2PL0 Copyright (c) Steve Scherf et al.
# Submitted via: FreeRIP 2.96 
#
DISCID=2a0b8116
DTITLE=Les Aiglons - Salut les Yéyés
DYEAR=1990
DGENRE=Classic Rock
TTITLE0=Les Aiglons - Stalactique
TTITLE1=Les Aiglons - T'en va pas
TTITLE2=Les Aiglons - Christine
TTITLE3=Les Aiglons - Marie_Line
TTITLE4=Les Aiglons - Panorama
TTITLE5=Les Aiglons - Dans le vent
TTITLE6=Les Aiglons - De l'amour
TTITLE7=Les Aiglons - Expo 64
TTITLE8=Les Aiglons - Rosko
TTITLE9=Les Aiglons - Patricia
TTITLE10=Les Aiglons - Rêverie
TTITLE11=Les Aiglons - California
TTITLE12=Les Aiglons - Tennessee
TTITLE13=Les Aiglons - Europa
TTITLE14=Les Aiglons - Troïka
TTITLE15=Les Aiglons - Bal 10/10 sunday Stranger
TTITLE16=Les Aiglons and Le Petit Prince - C'est pas drôle
TTITLE17=Les Aiglons and Le Petit Prince - La copine que j'ai choisie
TTITLE18=Les Aiglons and Tony Franck - La fureur
TTITLE19=Les Aiglons and Tony Franck - Si elle le veut
TTITLE20=Les Aiglons and Tony Franck - Ton image
TTITLE21=Les Aiglons and Tony Franck - Bien loin
EXTD=
EXTT0=
EXTT1=
EXTT2=
EXTT3=
EXTT4=
EXTT5=
EXTT6=
EXTT7=
EXTT8=
EXTT9=
EXTT10=
EXTT11=
EXTT12=
EXTT13=
EXTT14=
EXTT15=
EXTT16=
EXTT17=
EXTT18=
EXTT19=
EXTT20=
EXTT21=
PLAYORDER=
